<?xml version="1.0" standalone="no"?>
<!DOCTYPE svg PUBLIC "-//W3C//DTD SVG 20010904//EN"
 "http://www.w3.org/TR/2001/REC-SVG-20010904/DTD/svg10.dtd">
<svg version="1.0" xmlns="http://www.w3.org/2000/svg"
 width="2750.000000pt" height="2750.000000pt" viewBox="0 0 2750.000000 2750.000000"
 preserveAspectRatio="xMidYMid meet">
<metadata>
Created by potrace 1.14, written by Peter Selinger 2001-2017
</metadata>
<g transform="translate(0.000000,2750.000000) scale(0.100000,-0.100000)"
fill="#000000" stroke="none">
<path d="M11330 15945 l0 -7835 -4810 0 -4810 0 0 -620 0 -620 -620 0 -620 0
0 -595 0 -595 620 0 620 0 0 -625 0 -625 12045 0 12045 0 0 625 0 625 625 0
625 0 0 595 0 595 -625 0 -625 0 0 620 0 620 -4810 0 -4810 0 0 595 0 595
1195 0 1195 0 0 600 0 600 610 0 610 0 0 595 0 595 595 0 595 0 0 4230 0 4230
-595 0 -595 0 0 595 0 595 -610 0 -610 0 0 600 0 600 -1195 0 -1195 0 0 620 0
620 -2425 0 -2425 0 0 -7835z m2420 -25 l0 -4230 -600 0 -600 0 0 4230 0 4230
600 0 600 0 0 -4230z"/>
</g>
</svg>
